{
	"asset":{
		"generator":"Khronos glTF Blender I/O v3.6.27",
		"version":"2.0"
	},
	"scene":0,
	"scenes":[
		{
			"name":"Scene",
			"nodes":[
				0
			]
		}
	],
	"nodes":[
		{
			"mesh":0,
			"name":"Body.001"
		}
	],
	"materials":[
		{
			"doubleSided":true,
			"name":"Material.001",
			"normalTexture":{
				"index":0
			},
			"pbrMetallicRoughness":{
				"baseColorFactor":[
					0.05066613480448723,
					0.05066613480448723,
					0.05066613480448723,
					1
				],
				"metallicFactor":0,
				"roughnessFactor":0.5
			}
		}
	],
	"meshes":[
		{
			"name":"BodyMesh.001",
			"primitives":[
				{
					"attributes":{
						"POSITION":0,
						"NORMAL":1,
						"TEXCOORD_0":2
					},
					"indices":3,
					"material":0
				}
			]
		}
	],
	"textures":[
		{
			"sampler":0,
			"source":0
		}
	],
	"images":[
		{
			"mimeType":"image/png",
			"name":"BodyNormalMap",
			"uri":"BodyNormalMap.png"
		}
	],
	"accessors":[
		{
			"bufferView":0,
			"componentType":5126,
			"count":5953,
			"max":[
				1.6080186367034912,
				3.0816853046417236,
				0.36457115411758423
			],
			"min":[
				-1.6080186367034912,
				-0.1906493604183197,
				-0.23570412397384644
			],
			"type":"VEC3"
		},
		{
			"bufferView":1,
			"componentType":5126,
			"count":5953,
			"type":"VEC3"
		},
		{
			"bufferView":2,
			"componentType":5126,
			"count":5953,
			"type":"VEC2"
		},
		{
			"bufferView":3,
			"componentType":5123,
			"count":32286,
			"type":"SCALAR"
		}
	],
	"bufferViews":[
		{
			"buffer":0,
			"byteLength":71436,
			"byteOffset":0,
			"target":34962
		},
		{
			"buffer":0,
			"byteLength":71436,
			"byteOffset":71436,
			"target":34962
		},
		{
			"buffer":0,
			"byteLength":47624,
			"byteOffset":142872,
			"target":34962
		},
		{
			"buffer":0,
			"byteLength":64572,
			"byteOffset":190496,
			"target":34963
		}
	],
	"samplers":[
		{
			"magFilter":9729,
			"minFilter":9987
		}
	],
	"buffers":[
		{
			"byteLength":255068,
			"uri":"MultiResTest.bin"
		}
	]
}
