{"accessors":[{"bufferView":0,"byteOffset":0,"componentType":5126,"count":10110,"max":[151.258514,46.197807,152.002136],"min":[-150.167984,-13.716679,-150.726974],"normalized":false,"type":"VEC3"},{"bufferView":1,"byteOffset":0,"componentType":5126,"count":10110,"max":[1,0.971627,0.355831,1],"min":[0.232691,-0.950074,-0.500347,1],"normalized":false,"type":"VEC4"},{"bufferView":2,"byteOffset":0,"componentType":5126,"count":10110,"max":[0.950172,1,0.899893],"min":[-0.961419,0.149611,-0.639574],"normalized":false,"type":"VEC3"},{"bufferView":3,"byteOffset":0,"componentType":5126,"count":10110,"max":[1,1],"min":[0,0],"normalized":false,"type":"VEC2"},{"bufferView":4,"byteOffset":0,"componentType":5126,"count":10110,"max":[1,1,1,1],"min":[0,0,0,1],"normalized":false,"type":"VEC4"},{"bufferView":5,"byteOffset":0,"componentType":5125,"count":58806,"max":[9999],"min":[0],"normalized":false,"type":"SCALAR"},{"bufferView":6,"byteOffset":0,"componentType":5126,"count":20973,"max":[0.8723,3.462737,0.998791],"min":[-0.920354,-0.018046,-0.889702],"normalized":false,"type":"VEC3"},{"bufferView":7,"byteOffset":0,"componentType":5126,"count":20973,"max":[0.999699,0.999997,0.998751,1],"min":[-0.999641,-0.999963,-0.999693,-1],"normalized":false,"type":"VEC4"},{"bufferView":8,"byteOffset":0,"componentType":5126,"count":20973,"max":[0.999894,0.996561,0.999877],"min":[-0.999031,-0.987103,-0.999748],"normalized":false,"type":"VEC3"},{"bufferView":9,"byteOffset":0,"componentType":5126,"count":20973,"max":[0.993106,0.994686],"min":[0.005142,0.004743],"normalized":false,"type":"VEC2"},{"bufferView":10,"byteOffset":0,"componentType":5125,"count":21435,"max":[20972],"min":[0],"normalized":false,"type":"SCALAR"}],"asset":{"generator":"Godot Engine v4.1.1.stable.official@bd6af8e0ea69167dd0627f3bd54f9105bda0f8b5","version":"2.0"},"bufferViews":[{"buffer":0,"byteLength":121320,"byteOffset":0},{"buffer":0,"byteLength":161760,"byteOffset":121320},{"buffer":0,"byteLength":121320,"byteOffset":283080},{"buffer":0,"byteLength":80880,"byteOffset":404400},{"buffer":0,"byteLength":161760,"byteOffset":485280},{"buffer":0,"byteLength":235224,"byteOffset":647040},{"buffer":0,"byteLength":251676,"byteOffset":882264},{"buffer":0,"byteLength":335568,"byteOffset":1133940},{"buffer":0,"byteLength":251676,"byteOffset":1469508},{"buffer":0,"byteLength":167784,"byteOffset":1721184},{"buffer":0,"byteLength":85740,"byteOffset":1888968}],"buffers":[{"byteLength":1974708,"uri":"TerrainTest0.bin"}],"extensions":{"KHR_lights_punctual":{"lights":[{"color":[1,1,1],"intensity":1,"range":340282346638528860000000000000000000000,"type":"directional"}]}},"extensionsUsed":["KHR_lights_punctual","OMI_physics_body"],"images":[{"uri":"textures%2FTree_albedo000.png"},{"uri":"textures%2FTree_normal000.png"}],"materials":[{},{"alphaMode":"BLEND","doubleSided":true,"extensions":{},"name":"Tree","normalTexture":{"index":1,"scale":1},"pbrMetallicRoughness":{"baseColorFactor":[0.99999988079071,0.99999988079071,0.99999988079071,1],"baseColorTexture":{"index":0},"metallicFactor":0,"roughnessFactor":1}}],"meshes":[{"extras":{"targetNames":[]},"primitives":[{"attributes":{"COLOR_0":4,"NORMAL":2,"POSITION":0,"TANGENT":1,"TEXCOORD_0":3},"indices":5,"material":0,"mode":4}]},{"extras":{"targetNames":[]},"primitives":[{"attributes":{"NORMAL":8,"POSITION":6,"TANGENT":7,"TEXCOORD_0":9},"indices":10,"material":1,"mode":4}]}],"nodes":[{"children":[1,2,3],"extensions":{},"name":"TerrainTest"},{"extensions":{"KHR_lights_punctual":{"light":0}},"name":"DirectionalLight3D","rotation":[-0.27395948767662,0,0,0.961741209030151]},{"extensions":{},"name":"WorldEnvironment"},{"children":[4,6,61,62,63],"extensions":{},"name":"terrain_test2"},{"children":[5],"extensions":{},"mesh":0,"name":"Terrain"},{"extensions":{"OMI_physics_body":{"type":"static"}},"name":"Terrain_col"},{"extensions":{},"name":"DynamicInstancingNode"},{"extensions":{},"matrix":[1.69444918632507,-0.039969753474,-0.05469262599945,0,0.0412736609578133,1.67041039466858,0.0281134322285652,0,0.0476081632077694,-0.0255677960813,1.92222344875336,0,-6.4334774017334,-1.77680397033691,6.51004123687744,1],"mesh":1,"name":"MultiMeshScatter22"},{"extensions":{},"matrix":[1.21928298473358,-0.09434182196856,0.0932652130723,0,0.0854127630591393,1.2360612154007,0.107078462839127,0,-0.09695806354284,-0.09750588238239,1.26717209815979,0,-3.52656626701355,0.0529556274414063,-47.074291229248,1],"mesh":1,"name":"MultiMeshScatter23"},{"extensions":{},"matrix":[2.51173067092896,-0.03485782817006,0.132961750030518,0,0.0332256704568863,2.60813021659851,0.00782407820224762,0,-0.13784278929234,-0.00650456221774,2.42467594146729,0,-5.88681125640869,-1.97309923171997,-35.4454956054688,1],"mesh":1,"name":"MultiMeshScatter24"},{"extensions":{},"matrix":[1.27998578548431,-0.10083141922951,-0.09452795982361,0,0.0941415131092072,1.32240152359009,-0.06917018443346,0,0.0843282267451286,0.0541918724775314,1.51202297210693,0,20.5135307312012,-0.00001096725464,-4.55535793304443,1],"mesh":1,"name":"MultiMeshScatter25"},{"extensions":{},"matrix":[1.96633875370026,0.0683398097753525,0.0625110939145088,0,-0.05892645195127,2.14478826522827,-0.12340458482504,0,-0.06322062760592,0.126453459262848,2.0592930316925,0,51.8319435119629,0.197351932525635,-5.727126121521,1],"mesh":1,"name":"MultiMeshScatter26"},{"extensions":{},"matrix":[2.61889719963074,-0.09560906887054,-0.13233307003975,0,0.0949249863624573,2.47414231300354,-0.1118742749095,0,0.144926950335503,0.107174023985863,2.46459579467773,0,29.8731117248535,-0.00001001358032,-12.1884107589722,1],"mesh":1,"name":"MultiMeshScatter27"},{"extensions":{},"matrix":[2.63096213340759,-0.10599865019321,-0.07917701452971,0,0.115551307797432,2.51645445823669,0.170333385467529,0,0.071671299636364,-0.16605263948441,2.63186931610107,0,-38.1643829345703,-10.6117057800293,9.11434268951416,1],"mesh":1,"name":"MultiMeshScatter28"},{"extensions":{},"matrix":[1.24213719367981,0.018120676279068,0.0581244900822639,0,-0.01697813346982,1.26502633094788,-0.02218057215214,0,-0.05262677371502,0.0195828061550856,1.37905406951904,0,-25.5385284423828,-7.71740055084229,8.93035221099854,1],"mesh":1,"name":"MultiMeshScatter29"},{"extensions":{},"matrix":[2.41770172119141,0.164054051041603,0.0955004319548607,0,-0.16825398802757,2.3559877872467,-0.00893775653094,0,-0.09944743663073,0.00230651325546205,2.33686637878418,0,45.6549949645996,0.0877008438110352,-34.7706298828125,1],"mesh":1,"name":"MultiMeshScatter210"},{"extensions":{},"matrix":[3.5846312046051,-0.18751069903374,-0.24886111915112,0,0.179313227534294,3.35900402069092,-0.2945237159729,0,0.264592498540878,0.26396381855011,3.57110381126404,0,30.827564239502,-0.00001049041748,-21.0512275695801,1],"mesh":1,"name":"MultiMeshScatter211"},{"extensions":{},"matrix":[3.76749777793884,-0.31302019953728,0.00878713559359312,0,0.329157948493958,3.57763624191284,-0.1967690885067,0,0.0087157841771841,0.194538965821266,3.63278770446777,0,30.3178749084473,-0.00001049041748,0.82692813873291,1],"mesh":1,"name":"MultiMeshScatter212"},{"extensions":{},"matrix":[3.82306861877441,0.247463539242744,-0.0662312656641,0,-0.25256508588791,3.66702342033386,0.225607812404633,0,0.0872639566659927,-0.22813321650028,3.5545871257782,0,29.7532005310059,-0.00001001358032,-0.34127712249756,1],"mesh":1,"name":"MultiMeshScatter213"},{"extensions":{},"matrix":[3.78096556663513,0.326378971338272,0.132811799645424,0,-0.31828761100769,3.7572181224823,-0.23617160320282,0,-0.16154626011848,0.236166283488274,3.57375860214233,0,41.5057945251465,0.0315861701965332,-29.9158515930176,1],"mesh":1,"name":"MultiMeshScatter214"},{"extensions":{},"matrix":[3.34767889976501,0.206092044711113,-0.13101901113987,0,-0.21698704361916,3.30915069580078,-0.23994061350822,0,0.115048579871655,0.244356870651245,3.35984659194946,0,17.8224906921387,3.65096879005432,-66.9776611328125,1],"mesh":1,"name":"MultiMeshScatter215"},{"extensions":{},"matrix":[3.76391172409058,0.184135422110558,0.0559649653732777,0,-0.18139812350273,3.74500870704651,-0.21026614308357,0,-0.06630250066519,0.207109406590462,3.75233292579651,0,-16.6297607421875,-4.85752391815186,7.18300724029541,1],"mesh":1,"name":"MultiMeshScatter216"},{"extensions":{},"matrix":[2.54551219940186,-0.1522990167141,-0.07202426344156,0,0.149672880768776,2.60943698883057,0.0328086651861668,0,0.0729794725775719,-0.03950307145715,2.44490790367126,0,15.9382429122925,-0.00975894927979,-24.3973388671875,1],"mesh":1,"name":"MultiMeshScatter217"},{"extensions":{},"matrix":[3.52475309371948,0.190972864627838,0.0100825428962708,0,-0.19878503680229,3.37927103042603,0.268767714500427,0,0.00521495705470443,-0.26533591747284,3.43023467063904,0,-24.6541194915771,-8.01726150512695,-14.5076360702515,1],"mesh":1,"name":"MultiMeshScatter218"},{"extensions":{},"matrix":[2.85038447380066,0.242523208260536,-0.15687310695648,0,-0.24295908212662,2.91060304641724,-0.09876041859388,0,0.143650218844414,0.110498383641243,2.94572401046753,0,-3.45943260192871,-1.24301862716675,-39.136833190918,1],"mesh":1,"name":"MultiMeshScatter219"},{"extensions":{},"matrix":[1.12270617485046,-0.08769303560257,0.0669980943202972,0,0.0873867645859718,1.18407714366913,-0.11411877721548,0,-0.04819301143289,0.104146994650364,1.35386252403259,0,32.6195259094238,-0.00001049041748,-12.5255994796753,1],"mesh":1,"name":"MultiMeshScatter220"},{"extensions":{},"matrix":[1.13471186161041,-0.00831967685372,-0.03186301514506,0,0.00582523411139846,1.36508524417877,-0.05772295966744,0,0.0262994989752769,0.0565977916121483,1.38753950595856,0,33.7647819519043,-0.00001049041748,-28.5106239318848,1],"mesh":1,"name":"MultiMeshScatter221"},{"extensions":{},"matrix":[1.2531224489212,0.0856342539191246,-0.01248116977513,0,-0.08282206207514,1.27719438076019,0.0903902649879456,0,0.0175905637443066,-0.08699705451727,1.31472432613373,0,37.2478218078613,-0.00001049041748,1.65025424957275,1],"mesh":1,"name":"MultiMeshScatter222"},{"extensions":{},"matrix":[1.91729640960693,-0.17220659554005,-0.09417429566383,0,0.173543840646744,1.96792542934418,0.124074257910252,0,0.0832587108016014,-0.136324852705,1.91004312038422,0,-27.3133811950684,-1.40516424179077,-55.6674728393555,1],"mesh":1,"name":"MultiMeshScatter223"},{"extensions":{},"matrix":[3.50630259513855,0.0489679053425789,0.272968262434006,0,-0.06949724256992,3.38129091262817,0.221092030405998,0,-0.27988001704216,-0.22614718973637,3.36481380462646,0,-3.04033732414246,-0.63037443161011,13.6445245742798,1],"mesh":1,"name":"MultiMeshScatter224"},{"extensions":{},"matrix":[3.73584222793579,0.275375366210938,0.0348042286932468,0,-0.29249116778374,3.51641297340393,-0.00980607606471,0,-0.03572237491608,0.00669280299916863,3.72011351585388,0,-4.04372119903564,-1.53372621536255,-37.103630065918,1],"mesh":1,"name":"MultiMeshScatter225"},{"extensions":{},"matrix":[1.96880948543549,-0.16799356043339,0.0764289498329163,0,0.156561553478241,2.04152655601501,0.12025823444128,0,-0.08996341377497,-0.12363631278276,1.88189685344696,0,20.0283393859863,0.777316808700562,-47.8374252319336,1],"mesh":1,"name":"MultiMeshScatter226"},{"extensions":{},"matrix":[1.64427816867828,-0.13343694806099,0.090998649597168,0,0.123247571289539,1.78228878974915,0.00406952807679772,0,-0.08853682130575,0.00288353627547622,1.69566357135773,0,-13.0022201538086,-4.65264225006104,-4.83054351806641,1],"mesh":1,"name":"MultiMeshScatter227"},{"extensions":{},"matrix":[2.63765454292297,0.208687677979469,-0.23950934410095,0,-0.20437230169773,2.53404903411865,0.165858805179596,0,0.241911083459854,-0.13458102941513,2.75158905982971,0,19.874340057373,0.0000476837158203125,-30.5201644897461,1],"mesh":1,"name":"MultiMeshScatter228"},{"extensions":{},"matrix":[3.9151599407196,0.0562277808785439,-0.15812054276466,0,-0.05937476828694,3.70806908607483,0.00223851366899908,0,0.161985233426094,0.000154399778693914,3.82257080078125,0,1.47682952880859,0.966922521591187,-49.1987838745117,1],"mesh":1,"name":"MultiMeshScatter229"},{"extensions":{},"matrix":[3.53869104385376,-0.0775288939476,-0.12675635516644,0,0.0712364539504051,3.38015294075012,-0.2355348020792,0,0.140928030014038,0.238140597939491,3.30189967155457,0,29.8543434143066,0.0000171661376953125,-32.5957908630371,1],"mesh":1,"name":"MultiMeshScatter230"},{"extensions":{},"matrix":[2.97631669044495,0.0929188206791878,0.252309232950211,0,-0.07654841989279,2.81431937217712,-0.25971525907516,0,-0.25806573033333,0.236855030059814,2.98696398735046,0,30.6060066223145,-0.00001049041748,-20.9892234802246,1],"mesh":1,"name":"MultiMeshScatter231"},{"extensions":{},"matrix":[3.44345140457153,0.0434619709849358,0.0106813469901681,0,-0.04519084841013,3.23775601387024,-0.24980202317238,0,-0.01409805566072,0.237072214484215,3.40965223312378,0,-3.18040156364441,-0.86833381652832,9.57482242584229,1],"mesh":1,"name":"MultiMeshScatter232"},{"extensions":{},"matrix":[1.56903064250946,0.0199689213186502,0.129901260137558,0,-0.02220249734819,1.73833179473877,0.0651659220457077,0,-0.11263002455235,-0.06448953598738,1.79678750038147,0,32.5962028503418,0.0181493759155273,-37.6266746520996,1],"mesh":1,"name":"MultiMeshScatter233"},{"extensions":{},"matrix":[1.47358238697052,0.0560390613973141,-0.06608834117651,0,-0.06031002104282,1.42698931694031,-0.06870467960835,0,0.0565022975206375,0.0616538338363171,1.65025234222412,0,17.1994438171387,2.99722790718079,-61.2140922546387,1],"mesh":1,"name":"MultiMeshScatter234"},{"extensions":{},"matrix":[1.65022873878479,0.128157332539558,-0.07914996147156,0,-0.12705014646053,1.65896439552307,0.0144677748903632,0,0.082799106836319,-0.00866279937327,1.59969937801361,0,0.253260761499405,1.53862977027893,-52.0146789550781,1],"mesh":1,"name":"MultiMeshScatter235"},{"extensions":{},"matrix":[3.76051902770996,-0.27781522274017,0.0560774803161621,0,0.299466103315353,3.51979875564575,-0.23456268012524,0,-0.03949720039964,0.236244976520538,3.56067943572998,0,-14.6325349807739,1.00627446174622,-55.1903266906738,1],"mesh":1,"name":"MultiMeshScatter236"},{"extensions":{},"matrix":[2.4670033454895,0.146932139992714,-0.03439658135176,0,-0.14335496723652,2.49644708633423,0.116261646151543,0,0.0404843166470528,-0.11372382938862,2.50771617889404,0,-18.5504455566406,-5.03665733337402,11.4125680923462,1],"mesh":1,"name":"MultiMeshScatter237"},{"extensions":{},"matrix":[2.42867088317871,-0.14788326621056,0.0192586109042168,0,0.150245651602745,2.37089467048645,0.113902807235718,0,-0.0265271384269,-0.11094950139523,2.40833449363709,0,-27.2092571258545,-1.04133129119873,-57.4457206726074,1],"mesh":1,"name":"MultiMeshScatter238"},{"extensions":{},"matrix":[3.09096622467041,-0.02560617960989,-0.1147690564394,0,0.0242768619209528,2.94935035705566,-0.07304786890745,0,0.112523034214973,0.0670696049928665,3.1684238910675,0,-15.1583890914917,-2.45450210571289,-42.7054214477539,1],"mesh":1,"name":"MultiMeshScatter239"},{"extensions":{},"matrix":[2.00620126724243,-0.00350336008705,-0.11618385463953,0,0.00782988220453262,1.98541843891144,0.0857954621315002,0,0.107672318816185,-0.07910247892141,2.15855312347412,0,31.1243553161621,-0.00001049041748,-24.7527389526367,1],"mesh":1,"name":"MultiMeshScatter240"},{"extensions":{},"matrix":[1.89048969745636,-0.1689827889204,0.0517752729356289,0,0.157387226819992,2.05568361282349,-0.08562933653593,0,-0.04316058009863,0.094486877322197,1.95557272434235,0,-27.0351657867432,-8.7104663848877,-11.3608083724976,1],"mesh":1,"name":"MultiMeshScatter241"},{"extensions":{},"matrix":[2.39425492286682,-0.00741040892899,0.171161890029907,0,0.00749601237475872,2.50317430496216,-0.0056124702096,0,-0.16530111432076,0.00617912737652659,2.47888898849487,0,-13.6570291519165,-3.0090970993042,14.7699975967407,1],"mesh":1,"name":"MultiMeshScatter242"},{"extensions":{},"matrix":[2.79670095443726,0.212084770202637,-0.13913641870022,0,-0.20731939375401,2.70982432365417,0.224518939852715,0,0.153573870658875,-0.20406180620193,2.8368763923645,0,-22.7397937774658,-7.30731964111328,3.51735019683838,1],"mesh":1,"name":"MultiMeshScatter243"},{"extensions":{},"matrix":[3.16758370399475,0.255410015583038,0.0636004507541656,0,-0.27556073665619,2.97383308410645,0.247139349579811,0,-0.04304927960038,-0.24249358475208,3.09779453277588,0,-10.4551286697388,2.50983452796936,-59.0536003112793,1],"mesh":1,"name":"MultiMeshScatter244"},{"extensions":{},"matrix":[1.27773702144623,0.0404845625162125,0.0448608435690403,0,-0.03886070474982,1.33034706115723,-0.00226667127572,0,-0.03814893588424,0.000796947977505624,1.50485050678253,0,52.2022514343262,0.383046627044678,-10.9948110580444,1],"mesh":1,"name":"MultiMeshScatter245"},{"extensions":{},"matrix":[3.53608751296997,-0.29243391752243,-0.00219420390204,0,0.291762262582779,3.54388546943665,0.0494366399943829,0,-0.00194557732902,-0.05133038759232,3.42564034461975,0,21.6968193054199,-0.00001049041748,-13.00745677948,1],"mesh":1,"name":"MultiMeshScatter246"},{"extensions":{},"matrix":[3.68392205238342,0.237854644656181,-0.03452571853995,0,-0.2525283396244,3.4849967956543,-0.14170409739017,0,0.0263812635093927,0.144900321960449,3.46479821205139,0,-14.3874597549438,0.937958955764771,-54.8444519042969,1],"mesh":1,"name":"MultiMeshScatter247"},{"extensions":{},"matrix":[3.71189332008362,0.197153478860855,0.294713944196701,0,-0.19596195220947,3.46466135978699,-0.19194139540195,0,-0.3139683008194,0.168395727872849,3.60405826568604,0,36.6710472106934,0.246227264404297,-48.3999900817871,1],"mesh":1,"name":"MultiMeshScatter248"},{"extensions":{},"matrix":[1.61217880249023,0.0940432026982307,-0.09970985352993,0,-0.08457768708467,1.80870640277863,-0.01078313030303,0,0.0868138521909714,0.0156860705465078,1.84115898609161,0,34.6655082702637,-0.00001049041748,-27.1512031555176,1],"mesh":1,"name":"MultiMeshScatter249"},{"extensions":{},"matrix":[2.18467783927917,0.151686549186707,-0.12643185257912,0,-0.16011743247509,2.19953346252441,-0.18418149650097,0,0.10997062176466,0.189117893576622,2.24352836608887,0,18.1325492858887,-0.00082874298096,-27.5273017883301,1],"mesh":1,"name":"MultiMeshScatter250"},{"extensions":{},"matrix":[3.35433316230774,-0.22327370941639,-0.05703638866544,0,0.235511720180511,3.14748692512512,-0.12777151167393,0,0.0660123005509377,0.11610459536314,3.35408306121826,0,48.5737190246582,0.292884349822998,-22.0337104797363,1],"mesh":1,"name":"MultiMeshScatter251"},{"extensions":{},"matrix":[3.15748238563538,0.124475494027138,0.169489398598671,0,-0.11437144130468,3.21045994758606,-0.13825485110283,0,-0.18352618813515,0.140820771455765,3.00214505195618,0,17.3987998962402,-0.00140237808228,-27.5979385375977,1],"mesh":1,"name":"MultiMeshScatter252"},{"extensions":{},"matrix":[3.19869494438171,-0.0141836758703,0.102349810302258,0,0.019790880382061,3.01831412315369,-0.15545347332954,0,-0.09949287027121,0.144390672445297,3.25962281227112,0,-6.82305240631104,-1.42509078979492,-41.477855682373,1],"mesh":1,"name":"MultiMeshScatter253"},{"extensions":{},"matrix":[2.1397123336792,-0.08603722602129,0.00594589812681079,0,0.0845108181238174,2.1718111038208,0.0618193559348583,0,-0.00861716642976,-0.06421895325184,2.08269333839417,0,-25.0319309234619,-7.73054790496826,7.15658664703369,1],"mesh":1,"name":"MultiMeshScatter254"},{"extensions":{},"matrix":[3.53072929382324,-0.17825198173523,0.293688058853149,0,0.165835946798325,3.44484877586365,0.196312487125397,0,-0.31552785634995,-0.18407203257084,3.38952255249023,0,35.1809349060059,0.143162727355957,-44.5202598571777,1],"mesh":1,"name":"MultiMeshScatter255"},{"children":[7,8,9,10,11,12,13,14,15,16,17,18,19,20,21,22,23,24,25,26,27,28,29,30,31,32,33,34,35,36,37,38,39,40,41,42,43,44,45,46,47,48,49,50,51,52,53,54,55,56,57,58,59,60],"extensions":{},"name":"MultiMeshScatter2","translation":[0.109687000513077,-3.53670001029968,-14.5544004440308]},{"extensions":{},"name":"DynamicInstancingNode2"},{"extensions":{},"name":"DynamicInstancingNode3"}],"samplers":[{"magFilter":9729,"minFilter":9987,"wrapS":10497,"wrapT":10497}],"scene":0,"scenes":[{"nodes":[0]}],"textures":[{"sampler":0,"source":0},{"sampler":0,"source":1}]}