{
	"asset":{
		"generator":"Khronos glTF Blender I/O v3.6.27",
		"version":"2.0"
	},
	"scene":0,
	"scenes":[
		{
			"extras":{
				"SimpleBake_Props":{},
				"GodotPipelineProps":{
					"col_types":0,
					"path_options":0,
					"set_path":"res://addons/multimesh_scatter/multimesh_scatter.gd",
					"display_wire":1,
					"collision_margin":1.0,
					"collision_UI":0,
					"path_UI":1,
					"multimesh_UI":1,
					"mm_random_rotation":5.0,
					"mesh_data":0,
					"prop_path":"res://Levels/TerrainTest/Import2/mm_params.txt",
					"occlusion_culling":0,
					"multimesh_UI_dynamic_inst":1,
					"camera_node_path":"../../player2",
					"dynamic_script":"res://Levels/TerrainTest/Scripts/mm_visibility.gd"
				},
				"GRT_Action_Bakery_Global_Settings":{
					"Source_Armature":{},
					"Target_Armature":{}
				},
				"target":{
					"name":"Tree",
					"type":"Object"
				}
			},
			"name":"Scene",
			"nodes":[
				0,
				1,
				2,
				3
			]
		}
	],
	"nodes":[
		{
			"extras":{
				"collision":"trimesh",
				"shader":"res://Levels/TerrainTest/Shaders/BlendTextures.gdshader",
				"material_0":"res://Levels/TerrainTest/Shaders/BlendMaterial2.tres"
			},
			"mesh":0,
			"name":"Terrain"
		},
		{
			"mesh":1,
			"name":"Tree"
		},
		{
			"extras":{
				"size_x":"97.8414",
				"size_z":"111.6336",
				"size_y":"22.2703",
				"multimesh_target":"Tree",
				"prop_file":"res://Levels/TerrainTest/Import2/mm_params.txt",
				"camera_node":"../../player2",
				"dynamic_script":"res://Levels/TerrainTest/Scripts/mm_visibility.gd"
			},
			"mesh":2,
			"name":"Terrain.001",
			"translation":[
				-101.24730682373047,
				-2.5815353393554688,
				-14.391946792602539
			]
		},
		{
			"extras":{
				"size_x":"106.9076",
				"size_z":"111.5592",
				"size_y":"15.9936",
				"multimesh_target":"Tree",
				"prop_file":"res://Levels/TerrainTest/Import2/mm_params.txt",
				"camera_node":"../../player2",
				"dynamic_script":"res://Levels/TerrainTest/Scripts/mm_visibility.gd"
			},
			"mesh":3,
			"name":"Terrain.002",
			"translation":[
				0.10968732833862305,
				-3.53670334815979,
				-14.554380416870117
			]
		}
	],
	"materials":[
		{
			"doubleSided":true,
			"name":"Material.002",
			"pbrMetallicRoughness":{
				"baseColorTexture":{
					"index":0
				},
				"metallicFactor":0,
				"roughnessFactor":0.5
			}
		},
		{
			"alphaMode":"BLEND",
			"doubleSided":true,
			"extras":{
				"lp":{
					"uid":"0ec4eb3f34"
				},
				"DM":{},
				"SB_baked_orig_objects":[
					"TreeFraserFirLarge001_Needles01_Geo_LOD0"
				],
				"SB_bake_operation_id":"b4e9a452-2695-47e0-8f3c-1b4a1662e9e3"
			},
			"name":"Tree",
			"normalTexture":{
				"index":1
			},
			"pbrMetallicRoughness":{
				"baseColorTexture":{
					"index":2
				},
				"metallicFactor":0
			}
		}
	],
	"meshes":[
		{
			"name":"Terrain",
			"primitives":[
				{
					"attributes":{
						"POSITION":0,
						"NORMAL":1,
						"TEXCOORD_0":2
					},
					"indices":3,
					"material":0
				}
			]
		},
		{
			"name":"Tree",
			"primitives":[
				{
					"attributes":{
						"POSITION":4,
						"NORMAL":5,
						"TEXCOORD_0":6
					},
					"indices":7,
					"material":1
				}
			]
		},
		{
			"name":"Terrain.003",
			"primitives":[
				{
					"attributes":{
						"POSITION":8,
						"NORMAL":9,
						"TEXCOORD_0":10
					},
					"indices":11
				}
			]
		},
		{
			"name":"Terrain.004",
			"primitives":[
				{
					"attributes":{
						"POSITION":12,
						"NORMAL":13,
						"TEXCOORD_0":14
					},
					"indices":15
				}
			]
		}
	],
	"textures":[
		{
			"sampler":0,
			"source":0
		},
		{
			"sampler":0,
			"source":1
		},
		{
			"sampler":0,
			"source":2
		}
	],
	"images":[
		{
			"mimeType":"image/png",
			"name":"BlendMap",
			"uri":"BlendMap.png"
		},
		{
			"mimeType":"image/png",
			"name":"TreeFraserFirLarge001_Needles01_Geo_LOD0_Bake1_PBR_Normal",
			"uri":"TreeFraserFirLarge001_Needles01_Geo_LOD0_Bake1_PBR_Normal.png"
		},
		{
			"mimeType":"image/png",
			"name":"TreeFraserFirLarge001_Needles01_Geo_LOD0_Bake1_PBR_Diffuse",
			"uri":"TreeFraserFirLarge001_Needles01_Geo_LOD0_Bake1_PBR_Diffuse.png"
		}
	],
	"accessors":[
		{
			"bufferView":0,
			"componentType":5126,
			"count":10000,
			"max":[
				151.25851440429688,
				46.19780731201172,
				152.00213623046875
			],
			"min":[
				-150.16798400878906,
				-13.716678619384766,
				-150.7269744873047
			],
			"type":"VEC3"
		},
		{
			"bufferView":1,
			"componentType":5126,
			"count":10000,
			"type":"VEC3"
		},
		{
			"bufferView":2,
			"componentType":5126,
			"count":10000,
			"type":"VEC2"
		},
		{
			"bufferView":3,
			"componentType":5123,
			"count":58806,
			"type":"SCALAR"
		},
		{
			"bufferView":4,
			"componentType":5126,
			"count":20973,
			"max":[
				0.8722996115684509,
				3.4627370834350586,
				0.998790979385376
			],
			"min":[
				-0.9203543066978455,
				-0.018046392127871513,
				-0.8897016644477844
			],
			"type":"VEC3"
		},
		{
			"bufferView":5,
			"componentType":5126,
			"count":20973,
			"type":"VEC3"
		},
		{
			"bufferView":6,
			"componentType":5126,
			"count":20973,
			"type":"VEC2"
		},
		{
			"bufferView":7,
			"componentType":5123,
			"count":21435,
			"type":"SCALAR"
		},
		{
			"bufferView":8,
			"componentType":5126,
			"count":1224,
			"max":[
				48.920677185058594,
				11.135143280029297,
				55.816810607910156
			],
			"min":[
				-48.920677185058594,
				-11.135143280029297,
				-55.816810607910156
			],
			"type":"VEC3"
		},
		{
			"bufferView":9,
			"componentType":5126,
			"count":1224,
			"type":"VEC3"
		},
		{
			"bufferView":10,
			"componentType":5126,
			"count":1224,
			"type":"VEC2"
		},
		{
			"bufferView":11,
			"componentType":5123,
			"count":6918,
			"type":"SCALAR"
		},
		{
			"bufferView":12,
			"componentType":5126,
			"count":1282,
			"max":[
				53.45380401611328,
				7.996796607971191,
				55.77959442138672
			],
			"min":[
				-53.45380401611328,
				-7.996796607971191,
				-55.77959442138672
			],
			"type":"VEC3"
		},
		{
			"bufferView":13,
			"componentType":5126,
			"count":1282,
			"type":"VEC3"
		},
		{
			"bufferView":14,
			"componentType":5126,
			"count":1282,
			"type":"VEC2"
		},
		{
			"bufferView":15,
			"componentType":5123,
			"count":7254,
			"type":"SCALAR"
		}
	],
	"bufferViews":[
		{
			"buffer":0,
			"byteLength":120000,
			"byteOffset":0,
			"target":34962
		},
		{
			"buffer":0,
			"byteLength":120000,
			"byteOffset":120000,
			"target":34962
		},
		{
			"buffer":0,
			"byteLength":80000,
			"byteOffset":240000,
			"target":34962
		},
		{
			"buffer":0,
			"byteLength":117612,
			"byteOffset":320000,
			"target":34963
		},
		{
			"buffer":0,
			"byteLength":251676,
			"byteOffset":437612,
			"target":34962
		},
		{
			"buffer":0,
			"byteLength":251676,
			"byteOffset":689288,
			"target":34962
		},
		{
			"buffer":0,
			"byteLength":167784,
			"byteOffset":940964,
			"target":34962
		},
		{
			"buffer":0,
			"byteLength":42870,
			"byteOffset":1108748,
			"target":34963
		},
		{
			"buffer":0,
			"byteLength":14688,
			"byteOffset":1151620,
			"target":34962
		},
		{
			"buffer":0,
			"byteLength":14688,
			"byteOffset":1166308,
			"target":34962
		},
		{
			"buffer":0,
			"byteLength":9792,
			"byteOffset":1180996,
			"target":34962
		},
		{
			"buffer":0,
			"byteLength":13836,
			"byteOffset":1190788,
			"target":34963
		},
		{
			"buffer":0,
			"byteLength":15384,
			"byteOffset":1204624,
			"target":34962
		},
		{
			"buffer":0,
			"byteLength":15384,
			"byteOffset":1220008,
			"target":34962
		},
		{
			"buffer":0,
			"byteLength":10256,
			"byteOffset":1235392,
			"target":34962
		},
		{
			"buffer":0,
			"byteLength":14508,
			"byteOffset":1245648,
			"target":34963
		}
	],
	"samplers":[
		{
			"magFilter":9729,
			"minFilter":9987
		}
	],
	"buffers":[
		{
			"byteLength":1260156,
			"uri":"terrain_test2.bin"
		}
	]
}
