{
	"asset":{
		"generator":"Khronos glTF Blender I/O v3.6.27",
		"version":"2.0"
	},
	"scene":0,
	"scenes":[
		{
			"extras":{
				"SimpleBake_Props":{},
				"GodotPipelineProps":{
					"col_types":0,
					"path_options":0,
					"set_path":"res://addons/vertex_painter/scripts/multimesh_paint.gd",
					"display_wire":1,
					"collision_margin":1.0,
					"collision_UI":0,
					"path_UI":0,
					"multimesh_UI":0,
					"mm_random_rotation":5.0,
					"mesh_data":0,
					"prop_path":"res://Levels/TerrainTest/Import2/mm_grass_paint_params.txt",
					"occlusion_culling":0,
					"multimesh_UI_dynamic_inst":0,
					"camera_node_path":"../../player2",
					"dynamic_script":"res://Levels/TerrainTest/Scripts/mm_visibility.gd",
					"vertex_painter":1,
					"export_UI":1,
					"save_path":"//..\\..\\..\\..\\Godot\\Projects\\TestProject\\Levels\\TerrainTest\\Import2\\terrain_test2.gltf"
				},
				"GRT_Action_Bakery_Global_Settings":{
					"Source_Armature":{},
					"Target_Armature":{}
				},
				"target":{
					"name":"Tree1",
					"type":"Object"
				}
			},
			"name":"Scene",
			"nodes":[
				0
			]
		}
	],
	"nodes":[
		{
			"extras":{
				"collision":"trimesh",
				"shader":"res://Levels/TerrainTest/Shaders/BlendTextures.gdshader",
				"material_0":"res://Levels/TerrainTest/Shaders/BlendMaterial2.tres"
			},
			"mesh":0,
			"name":"Terrain"
		}
	],
	"materials":[
		{
			"doubleSided":true,
			"name":"BlendMap",
			"pbrMetallicRoughness":{
				"baseColorTexture":{
					"index":0
				},
				"metallicFactor":0,
				"roughnessFactor":0.5
			}
		}
	],
	"meshes":[
		{
			"name":"Terrain",
			"primitives":[
				{
					"attributes":{
						"COLOR_0":0,
						"POSITION":1,
						"NORMAL":2,
						"TEXCOORD_0":3
					},
					"indices":4,
					"material":0
				}
			]
		}
	],
	"textures":[
		{
			"sampler":0,
			"source":0
		}
	],
	"images":[
		{
			"mimeType":"image/png",
			"name":"BlendMap",
			"uri":"BlendMap.png"
		}
	],
	"accessors":[
		{
			"bufferView":0,
			"componentType":5123,
			"count":10083,
			"normalized":true,
			"type":"VEC4"
		},
		{
			"bufferView":1,
			"componentType":5126,
			"count":10083,
			"max":[
				151.25851440429688,
				46.19780731201172,
				152.00213623046875
			],
			"min":[
				-150.16798400878906,
				-13.716678619384766,
				-150.7269744873047
			],
			"type":"VEC3"
		},
		{
			"bufferView":2,
			"componentType":5126,
			"count":10083,
			"type":"VEC3"
		},
		{
			"bufferView":3,
			"componentType":5126,
			"count":10083,
			"type":"VEC2"
		},
		{
			"bufferView":4,
			"componentType":5123,
			"count":58806,
			"type":"SCALAR"
		}
	],
	"bufferViews":[
		{
			"buffer":0,
			"byteLength":80664,
			"byteOffset":0,
			"target":34962
		},
		{
			"buffer":0,
			"byteLength":120996,
			"byteOffset":80664,
			"target":34962
		},
		{
			"buffer":0,
			"byteLength":120996,
			"byteOffset":201660,
			"target":34962
		},
		{
			"buffer":0,
			"byteLength":80664,
			"byteOffset":322656,
			"target":34962
		},
		{
			"buffer":0,
			"byteLength":117612,
			"byteOffset":403320,
			"target":34963
		}
	],
	"samplers":[
		{
			"magFilter":9729,
			"minFilter":9987
		}
	],
	"buffers":[
		{
			"byteLength":520932,
			"uri":"terrain_test2.bin"
		}
	]
}
