{
	"asset":{
		"generator":"Khronos glTF Blender I/O v3.6.27",
		"version":"2.0"
	},
	"scene":0,
	"scenes":[
		{
			"extras":{
				"SimpleBake_Props":{}
			},
			"name":"Scene",
			"nodes":[
				0
			]
		}
	],
	"nodes":[
		{
			"mesh":0,
			"name":"Plane"
		}
	],
	"materials":[
		{
			"doubleSided":true,
			"name":"Material.002",
			"pbrMetallicRoughness":{
				"baseColorTexture":{
					"index":0
				},
				"metallicFactor":0,
				"roughnessFactor":0.5
			}
		}
	],
	"meshes":[
		{
			"name":"Plane",
			"primitives":[
				{
					"attributes":{
						"POSITION":0,
						"NORMAL":1,
						"TEXCOORD_0":2
					},
					"indices":3,
					"material":0
				}
			]
		}
	],
	"textures":[
		{
			"sampler":0,
			"source":0
		}
	],
	"images":[
		{
			"mimeType":"image/png",
			"name":"BlendMap",
			"uri":"BlendMap.png"
		}
	],
	"accessors":[
		{
			"bufferView":0,
			"componentType":5126,
			"count":10000,
			"max":[
				151.25851440429688,
				46.19780731201172,
				152.00213623046875
			],
			"min":[
				-150.16798400878906,
				-13.716678619384766,
				-150.7269744873047
			],
			"type":"VEC3"
		},
		{
			"bufferView":1,
			"componentType":5126,
			"count":10000,
			"type":"VEC3"
		},
		{
			"bufferView":2,
			"componentType":5126,
			"count":10000,
			"type":"VEC2"
		},
		{
			"bufferView":3,
			"componentType":5123,
			"count":58806,
			"type":"SCALAR"
		}
	],
	"bufferViews":[
		{
			"buffer":0,
			"byteLength":120000,
			"byteOffset":0,
			"target":34962
		},
		{
			"buffer":0,
			"byteLength":120000,
			"byteOffset":120000,
			"target":34962
		},
		{
			"buffer":0,
			"byteLength":80000,
			"byteOffset":240000,
			"target":34962
		},
		{
			"buffer":0,
			"byteLength":117612,
			"byteOffset":320000,
			"target":34963
		}
	],
	"samplers":[
		{
			"magFilter":9729,
			"minFilter":9987
		}
	],
	"buffers":[
		{
			"byteLength":437612,
			"uri":"terrain_test2.bin"
		}
	]
}
