{
	"asset":{
		"generator":"Khronos glTF Blender I/O v3.6.27",
		"version":"2.0"
	},
	"scene":0,
	"scenes":[
		{
			"extras":{
				"SimpleBake_Props":{},
				"GodotPipelineProps":{
					"col_types":3,
					"path_options":0,
					"set_path":"res://addons/vertex_painter/scripts/multimesh_paint.gd",
					"display_wire":0,
					"collision_margin":1.0,
					"collision_UI":0,
					"path_UI":1,
					"multimesh_UI":1,
					"mm_random_rotation":5.0,
					"mesh_data":0,
					"prop_path":"res://Levels/TerrainTest/Import2/mm_tree_paint_params.txt",
					"occlusion_culling":0,
					"multimesh_UI_dynamic_inst":0,
					"camera_node_path":"../../player2",
					"dynamic_script":"res://Levels/TerrainTest/Scripts/mm_visibility.gd",
					"vertex_painter":1,
					"export_UI":1,
					"save_path":"//..\\..\\..\\..\\Godot\\Projects\\TestProject\\Levels\\TerrainTest\\Import2\\terrain_test2.gltf"
				},
				"GRT_Action_Bakery_Global_Settings":{
					"Source_Armature":{},
					"Target_Armature":{}
				},
				"target":{
					"name":"Tree",
					"type":"Object"
				}
			},
			"name":"Scene",
			"nodes":[
				0,
				1,
				2,
				3,
				4,
				5,
				6
			]
		}
	],
	"nodes":[
		{
			"extras":{
				"collision":"trimesh",
				"shader":"res://Levels/TerrainTest/Shaders/BlendTextures.gdshader",
				"material_0":"res://Levels/TerrainTest/Shaders/BlendMaterial2.tres"
			},
			"mesh":0,
			"name":"Terrain"
		},
		{
			"extras":{
				"size_x":"301.4265",
				"size_z":"302.7291",
				"size_y":"59.9145",
				"multimesh_target":"Rock1",
				"group":"vertex_painter",
				"script":"res://addons/vertex_painter/scripts/multimesh_paint.gd",
				"prop_file":"res://Levels/TerrainTest/Import2/mm_rock_paint_params.txt"
			},
			"mesh":1,
			"name":"Rock1MM",
			"translation":[
				0.5452651977539062,
				16.240564346313477,
				0.6375808715820312
			]
		},
		{
			"extras":{
				"size_x":"301.4265",
				"size_z":"302.7291",
				"size_y":"59.9145",
				"multimesh_target":"Grass",
				"group":"vertex_painter",
				"script":"res://addons/vertex_painter/scripts/multimesh_paint.gd",
				"prop_file":"res://Levels/TerrainTest/Import2/mm_grass_paint_params.txt"
			},
			"mesh":2,
			"name":"GrassMM",
			"translation":[
				0.5452651977539062,
				16.240564346313477,
				0.6375808715820312
			]
		},
		{
			"extras":{
				"size_x":"301.4265",
				"size_z":"302.7291",
				"size_y":"59.9145",
				"multimesh_target":"Tree",
				"group":"vertex_painter",
				"script":"res://addons/vertex_painter/scripts/multimesh_paint.gd",
				"prop_file":"res://Levels/TerrainTest/Import2/mm_tree_paint_params.txt"
			},
			"mesh":3,
			"name":"TreeMM",
			"translation":[
				0.5452651977539062,
				16.240564346313477,
				0.6375808715820312
			]
		},
		{
			"mesh":4,
			"name":"Grass",
			"translation":[
				2.076735019683838,
				0,
				0
			]
		},
		{
			"extras":{
				"paramrenderwidth":2048,
				"paramrenderheight":2048,
				"paramedgewidth":1,
				"MaxHandle":32,
				"poliigon":"Models;TreeFraserFirLarge001",
				"poliigon_lod":"LOD0"
			},
			"mesh":5,
			"name":"Tree"
		},
		{
			"mesh":6,
			"name":"Rock1",
			"translation":[
				-2.700000047683716,
				0,
				1.5772186517715454
			]
		}
	],
	"materials":[
		{
			"doubleSided":true,
			"name":"BlendTerrain",
			"pbrMetallicRoughness":{}
		},
		{
			"doubleSided":true,
			"name":"Grass",
			"pbrMetallicRoughness":{
				"baseColorFactor":[
					0.04096367955207825,
					0.09850356727838516,
					0.0075668590143322945,
					1
				],
				"metallicFactor":0,
				"roughnessFactor":0.5
			}
		},
		{
			"alphaMode":"BLEND",
			"doubleSided":true,
			"extras":{
				"pmc_matprops":{},
				"poliigon":"Models;TreeFraserFirLarge001_Needles01_Mat_LOD0_8K_VAR1",
				"poliigon_props":{
					"asset_name":"TreeFraserFirLarge001_Needles01_Mat_LOD0_8K_VAR1",
					"asset_id":-1,
					"asset_type":"Models",
					"size":"8K",
					"mapping":"UV",
					"scale":1.0,
					"displacement":0.0,
					"use_16bit":1,
					"use_micro_displacements":0
				}
			},
			"name":"NewTreeMat.001",
			"pbrMetallicRoughness":{
				"baseColorTexture":{
					"index":0
				},
				"metallicFactor":0,
				"roughnessFactor":0.800000011920929
			}
		},
		{
			"doubleSided":true,
			"name":"Rock1",
			"normalTexture":{
				"index":1
			},
			"pbrMetallicRoughness":{
				"baseColorTexture":{
					"index":2
				},
				"metallicFactor":0,
				"metallicRoughnessTexture":{
					"index":3
				}
			}
		}
	],
	"meshes":[
		{
			"name":"Terrain",
			"primitives":[
				{
					"attributes":{
						"COLOR_0":0,
						"POSITION":1,
						"NORMAL":2,
						"TEXCOORD_0":3
					},
					"indices":4,
					"material":0
				}
			]
		},
		{
			"name":"Terrain.008",
			"primitives":[
				{
					"attributes":{
						"COLOR_0":5,
						"POSITION":6,
						"NORMAL":7,
						"TEXCOORD_0":8
					},
					"indices":4
				}
			]
		},
		{
			"name":"Terrain.009",
			"primitives":[
				{
					"attributes":{
						"COLOR_0":9,
						"POSITION":10,
						"NORMAL":11,
						"TEXCOORD_0":12
					},
					"indices":4
				}
			]
		},
		{
			"name":"Terrain.010",
			"primitives":[
				{
					"attributes":{
						"COLOR_0":13,
						"POSITION":14,
						"NORMAL":15,
						"TEXCOORD_0":16
					},
					"indices":4
				}
			]
		},
		{
			"name":"Grass",
			"primitives":[
				{
					"attributes":{
						"POSITION":17,
						"NORMAL":18,
						"TEXCOORD_0":19
					},
					"indices":20,
					"material":1
				}
			]
		},
		{
			"name":"Tree",
			"primitives":[
				{
					"attributes":{
						"POSITION":21,
						"NORMAL":22,
						"TEXCOORD_0":23
					},
					"indices":24,
					"material":2
				}
			]
		},
		{
			"name":"Rock1",
			"primitives":[
				{
					"attributes":{
						"POSITION":25,
						"NORMAL":26,
						"TEXCOORD_0":27
					},
					"indices":28,
					"material":3
				}
			]
		}
	],
	"textures":[
		{
			"sampler":0,
			"source":0
		},
		{
			"sampler":0,
			"source":1
		},
		{
			"sampler":0,
			"source":2
		},
		{
			"sampler":0,
			"source":3
		}
	],
	"images":[
		{
			"mimeType":"image/png",
			"name":"Tree-Albedo",
			"uri":"Tree-Albedo.png"
		},
		{
			"mimeType":"image/png",
			"name":"rock_moss_set_01_nor_gl",
			"uri":"rock_moss_set_01_nor_gl.png"
		},
		{
			"mimeType":"image/jpeg",
			"name":"rock_moss_set_01_diff_2k",
			"uri":"rock_moss_set_01_diff_2k.jpg"
		},
		{
			"mimeType":"image/png",
			"name":"rock_moss_set_01_rough_2k",
			"uri":"rock_moss_set_01_rough_2k.png"
		}
	],
	"accessors":[
		{
			"bufferView":0,
			"componentType":5123,
			"count":10083,
			"normalized":true,
			"type":"VEC4"
		},
		{
			"bufferView":1,
			"componentType":5126,
			"count":10083,
			"max":[
				151.25851440429688,
				46.19780731201172,
				152.00213623046875
			],
			"min":[
				-150.16798400878906,
				-13.716678619384766,
				-150.7269744873047
			],
			"type":"VEC3"
		},
		{
			"bufferView":2,
			"componentType":5126,
			"count":10083,
			"type":"VEC3"
		},
		{
			"bufferView":3,
			"componentType":5126,
			"count":10083,
			"type":"VEC2"
		},
		{
			"bufferView":4,
			"componentType":5123,
			"count":58806,
			"type":"SCALAR"
		},
		{
			"bufferView":5,
			"componentType":5123,
			"count":10083,
			"normalized":true,
			"type":"VEC4"
		},
		{
			"bufferView":6,
			"componentType":5126,
			"count":10083,
			"max":[
				150.7132568359375,
				29.957242965698242,
				151.36456298828125
			],
			"min":[
				-150.7132568359375,
				-29.957242965698242,
				-151.36456298828125
			],
			"type":"VEC3"
		},
		{
			"bufferView":7,
			"componentType":5126,
			"count":10083,
			"type":"VEC3"
		},
		{
			"bufferView":8,
			"componentType":5126,
			"count":10083,
			"type":"VEC2"
		},
		{
			"bufferView":9,
			"componentType":5123,
			"count":10083,
			"normalized":true,
			"type":"VEC4"
		},
		{
			"bufferView":10,
			"componentType":5126,
			"count":10083,
			"max":[
				150.7132568359375,
				29.957242965698242,
				151.36456298828125
			],
			"min":[
				-150.7132568359375,
				-29.957242965698242,
				-151.36456298828125
			],
			"type":"VEC3"
		},
		{
			"bufferView":11,
			"componentType":5126,
			"count":10083,
			"type":"VEC3"
		},
		{
			"bufferView":12,
			"componentType":5126,
			"count":10083,
			"type":"VEC2"
		},
		{
			"bufferView":13,
			"componentType":5123,
			"count":10083,
			"normalized":true,
			"type":"VEC4"
		},
		{
			"bufferView":14,
			"componentType":5126,
			"count":10083,
			"max":[
				150.7132568359375,
				29.957242965698242,
				151.36456298828125
			],
			"min":[
				-150.7132568359375,
				-29.957242965698242,
				-151.36456298828125
			],
			"type":"VEC3"
		},
		{
			"bufferView":15,
			"componentType":5126,
			"count":10083,
			"type":"VEC3"
		},
		{
			"bufferView":16,
			"componentType":5126,
			"count":10083,
			"type":"VEC2"
		},
		{
			"bufferView":17,
			"componentType":5126,
			"count":9575,
			"max":[
				1.0940628051757812,
				0.24528121948242188,
				1.1066218614578247
			],
			"min":[
				-1.0940628051757812,
				-0.24528121948242188,
				-1.1066218614578247
			],
			"type":"VEC3"
		},
		{
			"bufferView":18,
			"componentType":5126,
			"count":9575,
			"type":"VEC3"
		},
		{
			"bufferView":19,
			"componentType":5126,
			"count":9575,
			"type":"VEC2"
		},
		{
			"bufferView":20,
			"componentType":5123,
			"count":15066,
			"type":"SCALAR"
		},
		{
			"bufferView":21,
			"componentType":5126,
			"count":20055,
			"max":[
				0.8882762789726257,
				3.4764060974121094,
				0.998790979385376
			],
			"min":[
				-0.8905186057090759,
				-0.018046392127871513,
				-0.9945610165596008
			],
			"type":"VEC3"
		},
		{
			"bufferView":22,
			"componentType":5126,
			"count":20055,
			"type":"VEC3"
		},
		{
			"bufferView":23,
			"componentType":5126,
			"count":20055,
			"type":"VEC2"
		},
		{
			"bufferView":24,
			"componentType":5123,
			"count":22548,
			"type":"SCALAR"
		},
		{
			"bufferView":25,
			"componentType":5126,
			"count":691,
			"max":[
				1.1770806312561035,
				1.1085715293884277,
				1.0750837326049805
			],
			"min":[
				-0.9550782442092896,
				-0.6555169224739075,
				-0.8867086172103882
			],
			"type":"VEC3"
		},
		{
			"bufferView":26,
			"componentType":5126,
			"count":691,
			"type":"VEC3"
		},
		{
			"bufferView":27,
			"componentType":5126,
			"count":691,
			"type":"VEC2"
		},
		{
			"bufferView":28,
			"componentType":5123,
			"count":3171,
			"type":"SCALAR"
		}
	],
	"bufferViews":[
		{
			"buffer":0,
			"byteLength":80664,
			"byteOffset":0,
			"target":34962
		},
		{
			"buffer":0,
			"byteLength":120996,
			"byteOffset":80664,
			"target":34962
		},
		{
			"buffer":0,
			"byteLength":120996,
			"byteOffset":201660,
			"target":34962
		},
		{
			"buffer":0,
			"byteLength":80664,
			"byteOffset":322656,
			"target":34962
		},
		{
			"buffer":0,
			"byteLength":117612,
			"byteOffset":403320,
			"target":34963
		},
		{
			"buffer":0,
			"byteLength":80664,
			"byteOffset":520932,
			"target":34962
		},
		{
			"buffer":0,
			"byteLength":120996,
			"byteOffset":601596,
			"target":34962
		},
		{
			"buffer":0,
			"byteLength":120996,
			"byteOffset":722592,
			"target":34962
		},
		{
			"buffer":0,
			"byteLength":80664,
			"byteOffset":843588,
			"target":34962
		},
		{
			"buffer":0,
			"byteLength":80664,
			"byteOffset":924252,
			"target":34962
		},
		{
			"buffer":0,
			"byteLength":120996,
			"byteOffset":1004916,
			"target":34962
		},
		{
			"buffer":0,
			"byteLength":120996,
			"byteOffset":1125912,
			"target":34962
		},
		{
			"buffer":0,
			"byteLength":80664,
			"byteOffset":1246908,
			"target":34962
		},
		{
			"buffer":0,
			"byteLength":80664,
			"byteOffset":1327572,
			"target":34962
		},
		{
			"buffer":0,
			"byteLength":120996,
			"byteOffset":1408236,
			"target":34962
		},
		{
			"buffer":0,
			"byteLength":120996,
			"byteOffset":1529232,
			"target":34962
		},
		{
			"buffer":0,
			"byteLength":80664,
			"byteOffset":1650228,
			"target":34962
		},
		{
			"buffer":0,
			"byteLength":114900,
			"byteOffset":1730892,
			"target":34962
		},
		{
			"buffer":0,
			"byteLength":114900,
			"byteOffset":1845792,
			"target":34962
		},
		{
			"buffer":0,
			"byteLength":76600,
			"byteOffset":1960692,
			"target":34962
		},
		{
			"buffer":0,
			"byteLength":30132,
			"byteOffset":2037292,
			"target":34963
		},
		{
			"buffer":0,
			"byteLength":240660,
			"byteOffset":2067424,
			"target":34962
		},
		{
			"buffer":0,
			"byteLength":240660,
			"byteOffset":2308084,
			"target":34962
		},
		{
			"buffer":0,
			"byteLength":160440,
			"byteOffset":2548744,
			"target":34962
		},
		{
			"buffer":0,
			"byteLength":45096,
			"byteOffset":2709184,
			"target":34963
		},
		{
			"buffer":0,
			"byteLength":8292,
			"byteOffset":2754280,
			"target":34962
		},
		{
			"buffer":0,
			"byteLength":8292,
			"byteOffset":2762572,
			"target":34962
		},
		{
			"buffer":0,
			"byteLength":5528,
			"byteOffset":2770864,
			"target":34962
		},
		{
			"buffer":0,
			"byteLength":6342,
			"byteOffset":2776392,
			"target":34963
		}
	],
	"samplers":[
		{
			"magFilter":9729,
			"minFilter":9987
		}
	],
	"buffers":[
		{
			"byteLength":2782736,
			"uri":"terrain_test2.bin"
		}
	]
}
