{
	"asset":{
		"generator":"Khronos glTF Blender I/O v3.6.27",
		"version":"2.0"
	},
	"scene":0,
	"scenes":[
		{
			"extras":{
				"bsurfaces":{
					"SURFSK_mesh":{}
				},
				"GRT_Action_Bakery_Global_Settings":{
					"Source_Armature":{},
					"Target_Armature":{}
				},
				"automirror":{},
				"GodotPipelineProps":{
					"set_origin_type":0,
					"set_col_size":0,
					"object_selection":0,
					"col_types":0
				}
			},
			"name":"Scene",
			"nodes":[
				0,
				1,
				2
			]
		}
	],
	"nodes":[
		{
			"extras":{
				"collision":"box",
				"size_x":"5.7143",
				"size_z":"5.7143",
				"size_y":"5.7143"
			},
			"mesh":0,
			"name":"Cube"
		},
		{
			"extras":{
				"collision":"box",
				"size_x":"2.06",
				"size_z":"2.06",
				"size_y":"2.06"
			},
			"mesh":1,
			"name":"Cube.001",
			"scale":[
				1.8754078149795532,
				1.8754078149795532,
				1.8754078149795532
			],
			"translation":[
				0,
				0,
				-10.621912002563477
			]
		},
		{
			"extras":{
				"SB_uv_used_for_bake":"ProperUnwrap",
				"collision":"cylinder",
				"height":"3.1243",
				"radius":"1.7294"
			},
			"mesh":2,
			"name":"Boiler",
			"scale":[
				0.8999999761581421,
				0.8999999761581421,
				0.8999999761581421
			],
			"translation":[
				9.647564888000488,
				-0.27059346437454224,
				-4.822489261627197
			]
		}
	],
	"materials":[
		{
			"doubleSided":true,
			"name":"Material",
			"pbrMetallicRoughness":{
				"baseColorFactor":[
					0.800000011920929,
					0.800000011920929,
					0.800000011920929,
					1
				],
				"metallicFactor":0,
				"roughnessFactor":0.5
			}
		},
		{
			"doubleSided":true,
			"extras":{
				"SB_orig_fake_user":false
			},
			"name":"Boiler",
			"normalTexture":{
				"index":0
			},
			"pbrMetallicRoughness":{
				"baseColorTexture":{
					"index":1
				},
				"metallicRoughnessTexture":{
					"index":2
				}
			}
		}
	],
	"meshes":[
		{
			"name":"Cube",
			"primitives":[
				{
					"attributes":{
						"POSITION":0,
						"NORMAL":1,
						"TEXCOORD_0":2
					},
					"indices":3,
					"material":0
				}
			]
		},
		{
			"name":"Cube.001",
			"primitives":[
				{
					"attributes":{
						"POSITION":4,
						"NORMAL":5,
						"TEXCOORD_0":6
					},
					"indices":3,
					"material":0
				}
			]
		},
		{
			"name":"Boiler",
			"primitives":[
				{
					"attributes":{
						"POSITION":7,
						"NORMAL":8,
						"TEXCOORD_0":9,
						"TEXCOORD_1":10
					},
					"indices":11,
					"material":1
				}
			]
		}
	],
	"textures":[
		{
			"sampler":0,
			"source":0
		},
		{
			"sampler":0,
			"source":1
		},
		{
			"sampler":0,
			"source":2
		}
	],
	"images":[
		{
			"mimeType":"image/png",
			"name":"GeneratorThing_Bake1_PBR_Normal",
			"uri":"GeneratorThing_Bake1_PBR_Normal.png"
		},
		{
			"mimeType":"image/png",
			"name":"GeneratorThing_Bake1_PBR_Diffuse",
			"uri":"GeneratorThing_Bake1_PBR_Diffuse.png"
		},
		{
			"mimeType":"image/png",
			"name":"GeneratorThing_Bake1_PBR_Metalness-GeneratorThing_Bake1_PBR_Roughness",
			"uri":"GeneratorThing_Bake1_PBR_Metalness-GeneratorThing_Bake1_PBR_Roughness.png"
		}
	],
	"accessors":[
		{
			"bufferView":0,
			"componentType":5126,
			"count":24,
			"max":[
				2.7739477157592773,
				2.7739477157592773,
				2.7739477157592773
			],
			"min":[
				-2.7739477157592773,
				-2.7739477157592773,
				-2.7739477157592773
			],
			"type":"VEC3"
		},
		{
			"bufferView":1,
			"componentType":5126,
			"count":24,
			"type":"VEC3"
		},
		{
			"bufferView":2,
			"componentType":5126,
			"count":24,
			"type":"VEC2"
		},
		{
			"bufferView":3,
			"componentType":5123,
			"count":36,
			"type":"SCALAR"
		},
		{
			"bufferView":4,
			"componentType":5126,
			"count":24,
			"max":[
				1,
				1,
				1
			],
			"min":[
				-1,
				-1,
				-1
			],
			"type":"VEC3"
		},
		{
			"bufferView":5,
			"componentType":5126,
			"count":24,
			"type":"VEC3"
		},
		{
			"bufferView":6,
			"componentType":5126,
			"count":24,
			"type":"VEC2"
		},
		{
			"bufferView":7,
			"componentType":5126,
			"count":2376,
			"max":[
				1.6790615320205688,
				1.5166338682174683,
				1.6790615320205688
			],
			"min":[
				-1.6790615320205688,
				-1.5166338682174683,
				-1.6790615320205688
			],
			"type":"VEC3"
		},
		{
			"bufferView":8,
			"componentType":5126,
			"count":2376,
			"type":"VEC3"
		},
		{
			"bufferView":9,
			"componentType":5126,
			"count":2376,
			"type":"VEC2"
		},
		{
			"bufferView":10,
			"componentType":5126,
			"count":2376,
			"type":"VEC2"
		},
		{
			"bufferView":11,
			"componentType":5123,
			"count":8538,
			"type":"SCALAR"
		}
	],
	"bufferViews":[
		{
			"buffer":0,
			"byteLength":288,
			"byteOffset":0,
			"target":34962
		},
		{
			"buffer":0,
			"byteLength":288,
			"byteOffset":288,
			"target":34962
		},
		{
			"buffer":0,
			"byteLength":192,
			"byteOffset":576,
			"target":34962
		},
		{
			"buffer":0,
			"byteLength":72,
			"byteOffset":768,
			"target":34963
		},
		{
			"buffer":0,
			"byteLength":288,
			"byteOffset":840,
			"target":34962
		},
		{
			"buffer":0,
			"byteLength":288,
			"byteOffset":1128,
			"target":34962
		},
		{
			"buffer":0,
			"byteLength":192,
			"byteOffset":1416,
			"target":34962
		},
		{
			"buffer":0,
			"byteLength":28512,
			"byteOffset":1608,
			"target":34962
		},
		{
			"buffer":0,
			"byteLength":28512,
			"byteOffset":30120,
			"target":34962
		},
		{
			"buffer":0,
			"byteLength":19008,
			"byteOffset":58632,
			"target":34962
		},
		{
			"buffer":0,
			"byteLength":19008,
			"byteOffset":77640,
			"target":34962
		},
		{
			"buffer":0,
			"byteLength":17076,
			"byteOffset":96648,
			"target":34963
		}
	],
	"samplers":[
		{
			"magFilter":9729,
			"minFilter":9987
		}
	],
	"buffers":[
		{
			"byteLength":113724,
			"uri":"ColTest.bin"
		}
	]
}
