{
	"asset":{
		"generator":"Khronos glTF Blender I/O v3.6.27",
		"version":"2.0"
	},
	"scene":0,
	"scenes":[
		{
			"extras":{
				"bsurfaces":{
					"SURFSK_mesh":{}
				},
				"automirror":{
					"axis":3
				}
			},
			"name":"Scene",
			"nodes":[
				0
			]
		}
	],
	"nodes":[
		{
			"mesh":0,
			"name":"Cube.002"
		}
	],
	"animations":[
		{
			"channels":[
				{
					"sampler":0,
					"target":{
						"node":0,
						"path":"weights"
					}
				}
			],
			"name":"Key.007Action",
			"samplers":[
				{
					"input":6,
					"interpolation":"LINEAR",
					"output":7
				}
			]
		}
	],
	"materials":[
		{
			"doubleSided":true,
			"name":"Material.001",
			"pbrMetallicRoughness":{
				"baseColorFactor":[
					0.1733546108007431,
					0.1733546108007431,
					0.1733546108007431,
					1
				],
				"metallicFactor":0.8661417365074158,
				"roughnessFactor":0.374015748500824
			}
		}
	],
	"meshes":[
		{
			"extras":{
				"targetNames":[
					"Cube.003"
				]
			},
			"name":"Cube.006",
			"primitives":[
				{
					"attributes":{
						"POSITION":0,
						"NORMAL":1,
						"TEXCOORD_0":2
					},
					"indices":3,
					"material":0,
					"targets":[
						{
							"POSITION":4,
							"NORMAL":5
						}
					]
				}
			],
			"weights":[
				0
			]
		}
	],
	"accessors":[
		{
			"bufferView":0,
			"componentType":5126,
			"count":6086,
			"max":[
				1.0000001192092896,
				1.316225290298462,
				1.0000001192092896
			],
			"min":[
				-1.0000001192092896,
				-1.316225290298462,
				-1.0000001192092896
			],
			"type":"VEC3"
		},
		{
			"bufferView":1,
			"componentType":5126,
			"count":6086,
			"type":"VEC3"
		},
		{
			"bufferView":2,
			"componentType":5126,
			"count":6086,
			"type":"VEC2"
		},
		{
			"bufferView":3,
			"componentType":5123,
			"count":33792,
			"type":"SCALAR"
		},
		{
			"bufferView":4,
			"componentType":5126,
			"count":6086,
			"max":[
				0.01246798038482666,
				0.15728962421417236,
				0.012266457080841064
			],
			"min":[
				-0.01246798038482666,
				-0.15728962421417236,
				-0.012266457080841064
			],
			"type":"VEC3"
		},
		{
			"bufferView":5,
			"componentType":5126,
			"count":6086,
			"type":"VEC3"
		},
		{
			"bufferView":6,
			"componentType":5126,
			"count":39,
			"max":[
				1.625
			],
			"min":[
				0.041666666666666664
			],
			"type":"SCALAR"
		},
		{
			"bufferView":7,
			"componentType":5126,
			"count":39,
			"type":"SCALAR"
		}
	],
	"bufferViews":[
		{
			"buffer":0,
			"byteLength":73032,
			"byteOffset":0,
			"target":34962
		},
		{
			"buffer":0,
			"byteLength":73032,
			"byteOffset":73032,
			"target":34962
		},
		{
			"buffer":0,
			"byteLength":48688,
			"byteOffset":146064,
			"target":34962
		},
		{
			"buffer":0,
			"byteLength":67584,
			"byteOffset":194752,
			"target":34963
		},
		{
			"buffer":0,
			"byteLength":73032,
			"byteOffset":262336,
			"target":34962
		},
		{
			"buffer":0,
			"byteLength":73032,
			"byteOffset":335368,
			"target":34962
		},
		{
			"buffer":0,
			"byteLength":156,
			"byteOffset":408400
		},
		{
			"buffer":0,
			"byteLength":156,
			"byteOffset":408556
		}
	],
	"buffers":[
		{
			"byteLength":408712,
			"uri":"TestLevel.bin"
		}
	]
}
