{
	"asset":{
		"generator":"Khronos glTF Blender I/O v3.6.27",
		"version":"2.0"
	},
	"scene":0,
	"scenes":[
		{
			"extras":{
				"SimpleBake_Props":{
					"presets_show":1,
					"presets_list":[
						{
							"name":"AO"
						},
						{
							"name":"PBR"
						}
					],
					"presets_list_index":1,
					"preset_name":"PBR",
					"bake_objects_show":1,
					"first_texture_show":0,
					"objects_list":[
						{
							"obj_point":null,
							"name":"Grass"
						},
						{
							"obj_point":null,
							"name":"Rock"
						}
					],
					"merged_bake":0,
					"pbr_settings_show":1,
					"selected_metal":1,
					"selected_normal":1,
					"selected_rough":1,
					"specials_show":1,
					"textures_show":1,
					"imgwidth":4096,
					"outputwidth":4096,
					"imgheight":4096,
					"outputheight":4096,
					"export_show":1,
					"save_bakes_external":1,
					"everything_16bit":0,
					"export_folder_per_object":0,
					"uv_show":1,
					"other_show":1,
					"apply_bakes_to_original":0,
					"copy_and_apply":1,
					"hide_source_objects":1,
					"hide_cage_object":1,
					"create_glTF_node":0,
					"del_cptex_components":0,
					"total_bake_images_number":8,
					"targetobj":{},
					"targetobj_cycles":{},
					"fg_status_message":"[12:40:07] - Restoring exception handler",
					"current_bake_image_number":8,
					"percent_complete":100
				}
			},
			"name":"Scene",
			"nodes":[
				0,
				1
			]
		}
	],
	"nodes":[
		{
			"mesh":0,
			"name":"Plane"
		},
		{
			"mesh":1,
			"name":"Cube",
			"translation":[
				0,
				12.529736518859863,
				0
			]
		}
	],
	"materials":[
		{
			"doubleSided":true,
			"name":"Material.004",
			"pbrMetallicRoughness":{
				"baseColorTexture":{
					"index":0
				},
				"metallicFactor":0,
				"roughnessFactor":0.5
			}
		}
	],
	"meshes":[
		{
			"name":"Plane",
			"primitives":[
				{
					"attributes":{
						"POSITION":0,
						"NORMAL":1,
						"TEXCOORD_0":2
					},
					"indices":3,
					"material":0
				}
			]
		},
		{
			"name":"Cube.001",
			"primitives":[
				{
					"attributes":{
						"POSITION":4,
						"NORMAL":5,
						"TEXCOORD_0":6
					},
					"indices":7
				}
			]
		}
	],
	"textures":[
		{
			"sampler":0,
			"source":0
		}
	],
	"images":[
		{
			"mimeType":"image/png",
			"name":"BlendMap",
			"uri":"BlendMap.png"
		}
	],
	"accessors":[
		{
			"bufferView":0,
			"componentType":5126,
			"count":7921,
			"max":[
				175.50595092773438,
				63.97079849243164,
				173.22842407226562
			],
			"min":[
				-171.24786376953125,
				-11.277107238769531,
				-172.2707977294922
			],
			"type":"VEC3"
		},
		{
			"bufferView":1,
			"componentType":5126,
			"count":7921,
			"type":"VEC3"
		},
		{
			"bufferView":2,
			"componentType":5126,
			"count":7921,
			"type":"VEC2"
		},
		{
			"bufferView":3,
			"componentType":5123,
			"count":46464,
			"type":"SCALAR"
		},
		{
			"bufferView":4,
			"componentType":5126,
			"count":24,
			"max":[
				1,
				1,
				1
			],
			"min":[
				-1,
				-1,
				-1
			],
			"type":"VEC3"
		},
		{
			"bufferView":5,
			"componentType":5126,
			"count":24,
			"type":"VEC3"
		},
		{
			"bufferView":6,
			"componentType":5126,
			"count":24,
			"type":"VEC2"
		},
		{
			"bufferView":7,
			"componentType":5123,
			"count":36,
			"type":"SCALAR"
		}
	],
	"bufferViews":[
		{
			"buffer":0,
			"byteLength":95052,
			"byteOffset":0,
			"target":34962
		},
		{
			"buffer":0,
			"byteLength":95052,
			"byteOffset":95052,
			"target":34962
		},
		{
			"buffer":0,
			"byteLength":63368,
			"byteOffset":190104,
			"target":34962
		},
		{
			"buffer":0,
			"byteLength":92928,
			"byteOffset":253472,
			"target":34963
		},
		{
			"buffer":0,
			"byteLength":288,
			"byteOffset":346400,
			"target":34962
		},
		{
			"buffer":0,
			"byteLength":288,
			"byteOffset":346688,
			"target":34962
		},
		{
			"buffer":0,
			"byteLength":192,
			"byteOffset":346976,
			"target":34962
		},
		{
			"buffer":0,
			"byteLength":72,
			"byteOffset":347168,
			"target":34963
		}
	],
	"samplers":[
		{
			"magFilter":9729,
			"minFilter":9987
		}
	],
	"buffers":[
		{
			"byteLength":347240,
			"uri":"terrain_test.bin"
		}
	]
}
